<svg width="70" height="70" viewBox="0 0 70 70" fill="none" xmlns="http://www.w3.org/2000/svg">
<path d="M35.0003 39.6156C33.5845 39.6365 32.23 40.1971 31.2136 41.183C30.1972 42.169 29.5956 43.5057 29.5316 44.9203C29.5316 46.8672 30.9316 48.125 33.1628 48.125C33.7971 48.0378 34.4158 47.861 35.0003 47.6C35.5867 47.8563 36.2047 48.0328 36.8379 48.125C39.0254 48.125 40.5129 46.8672 40.5129 44.9203C40.4484 43.4983 39.8407 42.1552 38.815 41.1681C37.7892 40.1811 36.4238 39.6254 35.0003 39.6156ZM36.8488 45.9375C36.2571 45.6856 35.6361 45.5092 35.0003 45.4125C34.3666 45.5021 33.7483 45.6788 33.1628 45.9375C31.7191 45.9375 31.7191 45.2047 31.7191 44.9203C31.7191 44.0385 32.0694 43.1927 32.693 42.5692C33.3165 41.9456 34.1623 41.5953 35.0441 41.5953C35.9259 41.5953 36.7717 41.9456 37.3952 42.5692C38.0188 43.1927 38.3691 44.0385 38.3691 44.9203C38.2816 45.2047 38.2816 45.9375 36.8488 45.9375ZM32.1675 39.2219C35.3832 39.725 33.7097 34.65 32.9113 34.5187C32.1129 34.3875 28.9519 38.7188 32.1675 39.2219ZM28.0879 38.0078C27.4097 38.0953 25.9003 42.3828 28.6019 42C31.3035 41.6172 28.7769 37.9203 28.0879 38.0078ZM37.8332 39.2219C41.0488 38.7188 37.8988 34.3984 37.0894 34.5187C36.28 34.6391 34.6175 39.725 37.8332 39.2219ZM41.9128 38.0078C41.2238 37.9203 38.6316 41.65 41.3988 42C44.166 42.35 42.591 38.0953 41.9128 38.0078Z" fill="black"/>
<path d="M20.7812 27.3438C21.3853 27.3438 21.875 26.8541 21.875 26.25C21.875 25.6459 21.3853 25.1562 20.7812 25.1562C20.1772 25.1562 19.6875 25.6459 19.6875 26.25C19.6875 26.8541 20.1772 27.3438 20.7812 27.3438Z" fill="black"/>
<path d="M25.1562 21.875C25.7603 21.875 26.25 21.3853 26.25 20.7812C26.25 20.1772 25.7603 19.6875 25.1562 19.6875C24.5522 19.6875 24.0625 20.1772 24.0625 20.7812C24.0625 21.3853 24.5522 21.875 25.1562 21.875Z" fill="black"/>
<path d="M40.4688 26.25C41.0728 26.25 41.5625 25.7603 41.5625 25.1562C41.5625 24.5522 41.0728 24.0625 40.4688 24.0625C39.8647 24.0625 39.375 24.5522 39.375 25.1562C39.375 25.7603 39.8647 26.25 40.4688 26.25Z" fill="black"/>
<path d="M33.9062 20.7812C34.5103 20.7812 35 20.2916 35 19.6875C35 19.0834 34.5103 18.5938 33.9062 18.5938C33.3022 18.5938 32.8125 19.0834 32.8125 19.6875C32.8125 20.2916 33.3022 20.7812 33.9062 20.7812Z" fill="black"/>
<path d="M49.2188 27.3438C49.8228 27.3438 50.3125 26.8541 50.3125 26.25C50.3125 25.6459 49.8228 25.1562 49.2188 25.1562C48.6147 25.1562 48.125 25.6459 48.125 26.25C48.125 26.8541 48.6147 27.3438 49.2188 27.3438Z" fill="black"/>
<path d="M31.7188 26.25C32.3228 26.25 32.8125 25.7603 32.8125 25.1562C32.8125 24.5522 32.3228 24.0625 31.7188 24.0625C31.1147 24.0625 30.625 24.5522 30.625 25.1562C30.625 25.7603 31.1147 26.25 31.7188 26.25Z" fill="black"/>
<path d="M42.6562 20.7812C43.2603 20.7812 43.75 20.2916 43.75 19.6875C43.75 19.0834 43.2603 18.5938 42.6562 18.5938C42.0522 18.5938 41.5625 19.0834 41.5625 19.6875C41.5625 20.2916 42.0522 20.7812 42.6562 20.7812Z" fill="black"/>
<path d="M65.625 50.3125H64.3453L61.25 33.9828C61.0522 32.906 60.5357 31.9133 59.7674 31.1333C58.9991 30.3533 58.0143 29.8219 56.9406 29.6078C57.2922 28.1319 57.1108 26.5793 56.4282 25.2242C55.7457 23.8692 54.6062 22.7991 53.2109 22.2031C53.2119 20.7862 52.6628 19.4242 51.6794 18.4041C50.696 17.384 49.3551 16.7854 47.9391 16.7344C47.5964 15.8141 47.0314 14.993 46.2943 14.3442C45.5573 13.6954 44.6711 13.2391 43.7148 13.016C42.7585 12.7929 41.7619 12.81 40.8139 13.0656C39.8658 13.3213 38.9957 13.8076 38.2812 14.4812C36.8333 13.8387 35.2108 13.7038 33.6766 14.0984C33.0023 12.9797 32.0059 12.0906 30.8178 11.5476C29.6298 11.0046 28.3054 10.8329 27.0182 11.0551C25.731 11.2774 24.5409 11.8831 23.6037 12.793C22.6664 13.7029 22.0258 14.8746 21.7656 16.1547C20.7359 16.512 19.8226 17.1424 19.1233 17.9784C18.424 18.8145 17.965 19.8249 17.7953 20.9016C16.883 21.1124 16.0277 21.5198 15.2892 22.0955C14.5507 22.6712 13.9469 23.4012 13.5198 24.2345C13.0927 25.0678 12.8528 25.9843 12.8167 26.9199C12.7806 27.8556 12.9493 28.7879 13.3109 29.6516C12.1835 29.8107 11.1338 30.3178 10.3083 31.102C9.48288 31.8863 8.9228 32.9087 8.70625 34.0266L5.65469 50.3125H4.375C4.08492 50.3125 3.80672 50.4277 3.6016 50.6328C3.39648 50.838 3.28125 51.1162 3.28125 51.4062V55.7812C3.28125 56.0713 3.39648 56.3495 3.6016 56.5546C3.80672 56.7598 4.08492 56.875 4.375 56.875H65.625C65.9151 56.875 66.1933 56.7598 66.3984 56.5546C66.6035 56.3495 66.7188 56.0713 66.7188 55.7812V51.4062C66.7188 51.1162 66.6035 50.838 66.3984 50.6328C66.1933 50.4277 65.9151 50.3125 65.625 50.3125ZM18.9547 22.9687C19.2274 22.9441 19.4809 22.8181 19.6652 22.6156C19.8495 22.4131 19.9511 22.1488 19.95 21.875V21.8094C19.9491 20.937 20.2488 20.091 20.7987 19.4136C21.3485 18.7363 22.1148 18.2691 22.9688 18.0906C23.2034 18.0433 23.4161 17.9204 23.5742 17.7406C23.7322 17.5608 23.8269 17.3341 23.8438 17.0953C23.9201 16.1303 24.3208 15.2195 24.9807 14.5112C25.6405 13.8029 26.5206 13.3387 27.4778 13.1942C28.4349 13.0497 29.4128 13.2333 30.2524 13.7152C31.0919 14.1972 31.7437 14.949 32.1016 15.8484C32.1554 15.9851 32.2363 16.1096 32.3393 16.2143C32.4423 16.3191 32.5654 16.402 32.7012 16.4581C32.8369 16.5143 32.9826 16.5425 33.1295 16.5411C33.2764 16.5397 33.4216 16.5087 33.5562 16.45C34.2587 16.1533 35.0214 16.0274 35.7819 16.0825C36.5424 16.1376 37.279 16.3723 37.9313 16.7672C38.1604 16.9113 38.4348 16.9654 38.7015 16.919C38.9682 16.8725 39.2081 16.7288 39.375 16.5156C39.8244 15.9465 40.4282 15.519 41.1142 15.2841C41.8002 15.0492 42.5393 15.017 43.2432 15.1912C43.9471 15.3654 44.5858 15.7388 45.083 16.2666C45.5803 16.7943 45.9149 17.4542 46.0469 18.1672C46.1002 18.44 46.2553 18.6823 46.4808 18.8448C46.7063 19.0073 46.9853 19.0779 47.2609 19.0422C47.7699 18.9705 48.2886 19.0193 48.7753 19.1849C49.2619 19.3504 49.7029 19.6279 50.0626 19.9951C50.4223 20.3622 50.6907 20.8088 50.8462 21.2987C51.0017 21.7886 51.0399 22.3082 50.9578 22.8156C50.9112 23.0887 50.97 23.3693 51.1222 23.6007C51.2745 23.8322 51.5089 23.9972 51.7781 24.0625C52.3402 24.2135 52.8656 24.4774 53.3223 24.838C53.7791 25.1986 54.1577 25.6484 54.435 26.1601C54.7123 26.6718 54.8826 27.2345 54.9354 27.8141C54.9882 28.3936 54.9225 28.9779 54.7422 29.5312H54.8297H15.7609C15.3628 28.9149 15.1303 28.2062 15.0861 27.4737C15.0418 26.7413 15.1873 26.0098 15.5084 25.35C15.8295 24.6901 16.3154 24.1243 16.9191 23.7072C17.5228 23.29 18.2239 23.0357 18.9547 22.9687ZM10.9375 34.3875C11.0819 33.6271 11.4903 32.9423 12.0908 32.4539C12.6912 31.9656 13.4449 31.7052 14.2188 31.7187H55.8906C56.6551 31.7181 57.3958 31.9843 57.9849 32.4716C58.574 32.9588 58.9745 33.6365 59.1172 34.3875L62.1141 50.3125H7.88594L10.9375 34.3875ZM64.5312 54.6875H5.46875V52.5H64.5312V54.6875Z" fill="black"/>
</svg>
