<svg width="283" height="139" viewBox="0 0 283 139" fill="none" xmlns="http://www.w3.org/2000/svg">
<path fill-rule="evenodd" clip-rule="evenodd" d="M40.5654 65.1622C44.6873 65.1622 48.033 70.2883 48.033 76.607C48.033 82.9257 44.6873 88.0517 40.5654 88.0517C36.4436 88.0517 33.0979 82.9301 33.0979 76.607C33.1022 70.2883 36.4436 65.1622 40.5654 65.1622ZM50.0589 92.8664C58.8025 92.8839 59.8899 98.6765 67.2611 108.591C70.9356 115.804 66.1648 120.351 57.9869 118.404C54.2772 116.514 51.6681 115.848 49.0503 115.936C44.5163 116.094 43.3718 119.084 38.0967 118.874C34.0275 118.764 32.1945 117.058 31.8394 114.458C31.4579 111.695 32.5234 109.95 33.8214 107.666C38.8641 98.7729 44.0778 91.7526 50.0589 92.8664ZM26.1433 82.1364C23.0607 83.3554 22.0785 88.1745 23.9464 92.8971C25.8144 97.6197 29.8267 100.461 32.9093 99.2421C35.9919 98.0231 36.9742 93.204 35.1062 88.4814C33.2382 83.7588 29.2259 80.9174 26.1433 82.1364ZM72.352 82.1364C75.4346 83.3554 76.4168 88.1745 74.5488 92.8971C72.6809 97.6197 68.6642 100.461 65.586 99.2421C62.5034 98.0231 61.5211 93.204 63.3891 88.4814C65.2571 83.7588 69.2694 80.9174 72.352 82.1364ZM57.7939 65C61.9158 65 65.2615 70.126 65.2615 76.4447C65.2615 82.7635 61.9158 87.8895 57.7939 87.8895C53.6721 87.8895 50.3263 82.7678 50.3263 76.4447C50.3307 70.126 53.6721 65 57.7939 65Z" fill="black"/>
<path d="M16.64 92.2C16.64 85.4587 18.0907 79.4427 20.992 74.152C23.9787 68.8613 28.032 64.68 33.152 61.608C38.272 58.536 44.0747 57 50.56 57C57.1307 57 62.9333 58.536 67.968 61.608C73.088 64.68 77.0987 68.8613 80 74.152C82.9867 79.4427 84.48 85.4587 84.48 92.2C84.48 98.9413 82.9867 104.957 80 110.248C77.0987 115.539 73.088 119.72 67.968 122.792C62.9333 125.864 57.1307 127.4 50.56 127.4C44.0747 127.4 38.272 125.864 33.152 122.792C28.032 119.72 23.9787 115.539 20.992 110.248C18.0907 104.957 16.64 98.9413 16.64 92.2ZM5.12 92.2C5.12 98.6853 6.22933 104.744 8.448 110.376C10.752 116.008 13.952 120.915 18.048 125.096C22.144 129.192 26.9653 132.435 32.512 134.824C38.0587 137.128 44.0747 138.28 50.56 138.28C57.1307 138.28 63.1467 137.128 68.608 134.824C74.1547 132.435 78.976 129.192 83.072 125.096C87.168 120.915 90.3253 116.008 92.544 110.376C94.848 104.744 96 98.6853 96 92.2C96 85.6293 94.848 79.5707 92.544 74.024C90.3253 68.392 87.168 63.528 83.072 59.432C78.976 55.2507 74.1547 52.008 68.608 49.704C63.1467 47.3147 57.1307 46.12 50.56 46.12C44.0747 46.12 38.0587 47.3147 32.512 49.704C26.9653 52.008 22.144 55.2507 18.048 59.432C13.952 63.528 10.752 68.392 8.448 74.024C6.22933 79.5707 5.12 85.6293 5.12 92.2ZM111.365 47.4V137H122.245V47.4H111.365ZM117.381 57.64H135.685C141.488 57.64 146.181 59.048 149.765 61.864C153.434 64.5947 155.269 68.7333 155.269 74.28C155.269 79.7413 153.434 83.88 149.765 86.696C146.181 89.512 141.488 90.92 135.685 90.92H117.381V101.16H135.685C141.488 101.16 146.65 100.093 151.173 97.96C155.781 95.7413 159.408 92.6267 162.053 88.616C164.784 84.52 166.149 79.7413 166.149 74.28C166.149 68.7333 164.784 63.9547 162.053 59.944C159.408 55.9333 155.781 52.8613 151.173 50.728C146.65 48.5093 141.488 47.4 135.685 47.4H117.381V57.64ZM184.818 109.864L176.114 115.752C178.077 119.677 180.594 123.389 183.666 126.888C186.823 130.301 190.45 133.075 194.546 135.208C198.727 137.256 203.25 138.28 208.114 138.28C211.698 138.28 215.111 137.683 218.354 136.488C221.682 135.293 224.626 133.587 227.186 131.368C229.831 129.149 231.879 126.461 233.33 123.304C234.866 120.147 235.634 116.605 235.634 112.68C235.634 108.584 234.909 105.085 233.458 102.184C232.007 99.1973 230.13 96.68 227.826 94.632C225.607 92.4987 223.175 90.7493 220.53 89.384C217.885 88.0187 215.367 86.9093 212.978 86.056C207.773 84.264 203.634 82.472 200.562 80.68C197.575 78.8027 195.442 76.84 194.162 74.792C192.882 72.6587 192.242 70.3547 192.242 67.88C192.242 64.9787 193.351 62.376 195.57 60.072C197.789 57.6827 201.33 56.488 206.194 56.488C209.693 56.488 212.637 57.1707 215.026 58.536C217.501 59.9013 219.591 61.6507 221.298 63.784C223.005 65.9173 224.413 68.0933 225.522 70.312L234.866 64.936C233.415 61.7787 231.41 58.792 228.85 55.976C226.29 53.0747 223.175 50.728 219.506 48.936C215.922 47.0587 211.698 46.12 206.834 46.12C201.799 46.12 197.319 47.144 193.394 49.192C189.469 51.1547 186.397 53.8853 184.178 57.384C181.959 60.8827 180.85 64.8507 180.85 69.288C180.85 73.384 181.618 76.84 183.154 79.656C184.775 82.472 186.823 84.8613 189.298 86.824C191.773 88.7013 194.375 90.28 197.106 91.56C199.837 92.7547 202.311 93.736 204.53 94.504C207.943 95.6987 211.143 97.064 214.13 98.6C217.202 100.051 219.677 101.971 221.554 104.36C223.431 106.749 224.37 109.949 224.37 113.96C224.37 118.056 222.919 121.427 220.018 124.072C217.117 126.717 213.277 128.04 208.498 128.04C204.914 128.04 201.714 127.272 198.898 125.736C196.082 124.2 193.522 122.067 191.218 119.336C188.999 116.605 186.866 113.448 184.818 109.864Z" fill="black"/>
<path d="M0 153H241.394V159.4H0V153Z" fill="black"/>
</svg>
