<?xml version="1.0" standalone="no"?>
<!DOCTYPE svg PUBLIC "-//W3C//DTD SVG 20010904//EN"
 "http://www.w3.org/TR/2001/REC-SVG-20010904/DTD/svg10.dtd">
<svg version="1.0" xmlns="http://www.w3.org/2000/svg"
 width="200.000000pt" height="200.000000pt" viewBox="0 0 200.000000 200.000000"
 preserveAspectRatio="xMidYMid meet">

<g transform="translate(0.000000,200.000000) scale(0.100000,-0.100000)"
fill="#000000" stroke="none">
<path d="M827 1985 c-211 -40 -383 -131 -532 -280 -203 -203 -306 -468 -292
-750 24 -451 326 -817 767 -928 115 -29 329 -30 445 -3 383 89 672 378 761
761 27 116 26 330 -3 445 -93 370 -372 650 -738 741 -107 27 -304 34 -408 14z
m328 -120 c175 -31 336 -115 465 -245 345 -345 345 -895 0 -1240 -345 -345
-895 -345 -1240 0 -345 344 -345 897 -1 1241 205 205 489 294 776 244z"/>
<path d="M973 1683 c-26 -5 -73 -57 -73 -81 0 -12 -17 -23 -52 -36 -73 -26
-167 -120 -199 -201 -22 -57 -24 -75 -29 -345 -6 -318 -5 -317 -81 -391 -35
-34 -39 -43 -39 -87 0 -38 5 -55 25 -76 l24 -26 449 0 449 0 27 26 c21 22 26
36 26 76 0 44 -4 53 -39 87 -76 74 -75 73 -81 391 -5 270 -7 288 -29 345 -32
81 -126 175 -199 201 -36 13 -52 24 -52 36 0 25 -50 75 -80 80 -14 3 -35 3
-47 1z m143 -231 c23 -11 56 -38 74 -58 62 -72 64 -81 70 -394 5 -271 6 -288
29 -337 12 -28 31 -59 42 -69 10 -9 19 -21 19 -26 0 -4 -160 -8 -356 -8 l-356
0 28 32 c64 77 68 95 74 413 4 257 7 294 24 325 35 67 95 118 166 141 41 14
142 3 186 -19z"/>
<path d="M900 380 c0 -52 49 -100 101 -100 50 0 99 49 99 100 0 19 -7 20 -100
20 -94 0 -100 -1 -100 -20z"/>
</g>
</svg>
