<svg width="70" height="69" viewBox="0 0 70 69" fill="none" xmlns="http://www.w3.org/2000/svg">
<path d="M39.4711 50.0478C39.5931 50.0478 39.7171 50.0297 39.8394 49.9919C40.1533 49.8953 40.41 49.6846 40.5619 49.3987C40.7137 49.113 40.7429 48.7863 40.6439 48.479C40.44 47.8458 39.7483 47.4923 39.1012 47.6917C38.7878 47.7883 38.5315 47.9987 38.3795 48.2843C38.2275 48.5699 38.1982 48.8964 38.2971 49.2047C38.4625 49.7185 38.9486 50.0478 39.4711 50.0478ZM35.4492 48.8176C34.8025 49.0176 34.4421 49.6957 34.6458 50.3303C34.8112 50.8439 35.2976 51.1733 35.8203 51.1733C35.9422 51.1733 36.0661 51.1553 36.1882 51.1177C36.5021 51.0211 36.7586 50.8104 36.9107 50.5244C37.0625 50.2386 37.0917 49.9119 36.9926 49.6047C36.7888 48.9714 36.0966 48.6187 35.4492 48.8176ZM65.2434 41.0334L61.9408 34.7546C62.7932 34.2336 63.362 33.3066 63.362 32.2515V30.8933C63.362 29.2676 62.0127 27.9451 60.3542 27.9451H48.4898C46.8313 27.9451 45.482 29.2676 45.482 30.8933V32.2515C45.482 33.3066 46.0508 34.2336 46.9032 34.7546L43.6005 41.0337C43.3507 41.4492 43.219 41.9235 43.219 42.4083V61.7861C43.219 63.1863 44.3637 64.3255 45.7708 64.3255H63.0734C64.4803 64.3255 65.6251 63.1863 65.6251 61.7861V42.4083C65.6251 41.9232 65.4933 41.4488 65.2434 41.0334ZM47.6695 30.8933C47.6695 30.4499 48.0375 30.0892 48.4898 30.0892H60.3542C60.8065 30.0892 61.1745 30.4499 61.1745 30.8933V32.2515C61.1745 32.6949 60.8065 33.0555 60.3542 33.0555H48.4898C48.0375 33.0555 47.6695 32.6949 47.6695 32.2515V30.8933ZM63.4376 61.7861C63.4376 62.004 63.2742 62.1813 63.0734 62.1813H45.7708C45.5699 62.1813 45.4065 62.004 45.4065 61.7861V42.4083C45.4065 42.1977 45.35 42.3801 49.1302 35.1997H59.7139C63.494 42.3803 63.4376 42.1979 63.4376 42.4083V61.7861Z" fill="black"/>
<path d="M51.894 52.8432H53.3282V54.1376C53.3282 54.7297 53.8179 55.2097 54.4219 55.2097C55.026 55.2097 55.5157 54.7297 55.5157 54.1376V52.8432H56.95C57.5541 52.8432 58.0438 52.3631 58.0438 51.7711C58.0438 51.179 57.5541 50.699 56.95 50.699H55.5157V49.4047C55.5157 48.8126 55.026 48.3326 54.4219 48.3326C53.8179 48.3326 53.3282 48.8126 53.3282 49.4047V50.699H51.894C51.29 50.699 50.8002 51.179 50.8002 51.7711C50.8002 52.3631 51.29 52.8432 51.894 52.8432ZM39.3307 52.3525C36.6066 53.3554 33.7357 53.864 30.7978 53.864C17.4344 53.864 6.5625 43.2251 6.5625 30.1483C6.5625 17.0714 17.4344 6.43255 30.7978 6.43255C42.123 6.43255 52.0834 14.2807 54.4816 25.0936C54.6101 25.6722 55.1923 26.0389 55.7827 25.9135C56.373 25.7878 56.7475 25.2168 56.6192 24.6382C55.3595 18.958 52.1167 13.7948 47.4884 10.0999C42.7943 6.35233 36.8668 4.28837 30.7978 4.28837C16.2282 4.28837 4.375 15.8891 4.375 30.1483C4.375 44.4074 16.2282 56.0081 30.7978 56.0081C33.9992 56.0081 37.1289 55.4535 40.0997 54.3598C40.6653 54.1516 40.9515 53.5335 40.7391 52.9793C40.5266 52.4249 39.8958 52.1446 39.3307 52.3525Z" fill="black"/>
<path d="M50.0219 25.2363C50.1744 25.8094 50.7723 26.1529 51.3563 26.0032C51.9408 25.8537 52.2911 25.2682 52.1386 24.6953C49.6122 15.199 40.8365 8.56679 30.798 8.56679C18.6391 8.56679 8.74707 18.2482 8.74707 30.1483C8.74707 42.0483 18.6391 51.7297 30.798 51.7297C31.1784 51.7297 31.5636 51.72 31.9429 51.7011C32.5461 51.671 33.0102 51.167 32.9794 50.5757C32.9486 49.9844 32.4355 49.5248 31.8312 49.5598C31.489 49.5769 31.1414 49.5855 30.798 49.5855C19.8453 49.5855 10.9346 40.866 10.9346 30.1483C10.9346 19.4305 19.8453 10.711 30.798 10.711C39.8414 10.711 47.7466 16.684 50.0219 25.2363Z" fill="black"/>
<path d="M31.8919 17.4846V14.6294C31.8919 14.0373 31.4022 13.5573 30.7981 13.5573C30.194 13.5573 29.7044 14.0373 29.7044 14.6294V17.4846C29.7044 18.0766 30.194 18.5567 30.7981 18.5567C31.4022 18.5567 31.8919 18.0766 31.8919 17.4846ZM17.8579 29.0762H14.9404C14.3363 29.0762 13.8467 29.5562 13.8467 30.1483C13.8467 30.7403 14.3363 31.2204 14.9404 31.2204H17.8579C18.462 31.2204 18.9517 30.7403 18.9517 30.1483C18.9517 29.5562 18.462 29.0762 17.8579 29.0762ZM29.7044 42.812V45.667C29.7044 46.2591 30.194 46.7391 30.7981 46.7391C31.4022 46.7391 31.8919 46.2591 31.8919 45.667V42.812C31.8919 42.2199 31.4022 41.7399 30.7981 41.7399C30.194 41.7399 29.7044 42.2199 29.7044 42.812ZM38.9609 22.7693C38.5314 22.3531 37.8389 22.3568 37.4142 22.7783L32.7867 27.3679C32.2231 26.9803 31.5376 26.7519 30.7981 26.7519C29.9543 26.7519 29.1802 27.0488 28.5782 27.541L20.6818 21.5084C20.2054 21.1442 19.518 21.228 19.1467 21.6949C18.7754 22.162 18.8605 22.8356 19.337 23.1996L27.4211 29.3755C27.3618 29.6239 27.3294 29.8824 27.3294 30.1483C27.3294 32.021 28.8855 33.5446 30.7981 33.5446C32.7108 33.5446 34.2668 32.021 34.2668 30.1483C34.2668 29.7876 34.2086 29.4402 34.1018 29.1138L38.9701 24.2854C39.3947 23.8642 39.3906 23.1856 38.9609 22.7693ZM30.7981 31.4004C30.0916 31.4004 29.5169 30.8387 29.5169 30.1483C29.5169 29.4775 30.0846 28.8961 30.7981 28.8961C31.5046 28.8961 32.0793 29.4578 32.0793 30.1483C32.0793 30.8387 31.5046 31.4004 30.7981 31.4004ZM59.6262 43.7468H49.2186C48.0877 43.7468 47.1678 44.6485 47.1678 45.7569V57.7854C47.1678 58.8938 48.0877 59.7955 49.2186 59.7955H59.6262C60.757 59.7955 61.6769 58.8938 61.6769 57.7854V45.7569C61.6769 44.6485 60.757 43.7468 59.6262 43.7468ZM59.4894 57.6514H49.3553V45.8909H59.4894V57.6514Z" fill="black"/>
</svg>
